<svg xmlns="http://www.w3.org/2000/svg" xmlns:xlink="http://www.w3.org/1999/xlink" width="421px" height="876px" viewBox="0 0 421 876" version="1.1"><defs><path d="M417 807.835947C417 843.272386 388.240689 872 352.765152 872L64.2348485 872C28.7593106 872 0 843.272386 0 807.835947L0 64.1640531C0 28.727614 28.7593106 0 64.2348485 0L352.765152 0C388.240689 0 417 28.727614 417 64.1640531L417 807.835947ZM398 770.89325L398 104.10675C398 102.942771 397.055139 102 395.888579 102L21.1114206 102C19.9448607 102 19 102.942771 19 104.10675L19 770.89325C19 772.057229 19.9448607 773 21.1114206 773L395.888579 773C397.055139 773 398 772.057229 398 770.89325Z" id="path-1"/><mask id="mask-2" maskContentUnits="userSpaceOnUse" maskUnits="objectBoundingBox" x="-2" y="-2" width="421" height="876"><rect x="-2" y="-2" width="421" height="876" fill="white"/><use xlink:href="#path-1" fill="black"/></mask></defs><g id="Modern-Oxford" stroke="none" stroke-width="1" fill="none" fill-rule="evenodd"><g id="img-10" transform="translate(-440.000000, -173.000000)"><g id="img-3" transform="translate(442.000000, 175.000000)"><g id="Body"><path d="M352.765152 872L64.2348485 872C28.7593106 872 0 843.272386 0 807.835947L0 64.1640531C0 28.727614 28.7593106 0 64.2348485 0L352.765152 0C388.240689 0 417 28.727614 417 64.1640531L417 807.835947C417 843.272386 388.240689 872 352.765152 872Z" id="Stroke-3"/><g id="Combined-Shape"><use fill="#FFFFFF" fill-rule="evenodd" xlink:href="#path-1"/><use stroke="#E0E0E0" mask="url(#mask-2)" stroke-width="4" xlink:href="#path-1"/></g><path d="M236 818C236 803.088286 223.911714 791 209 791 194.088286 791 182 803.088286 182 818 182 832.911714 194.088286 845 209 845 223.911714 845 236 832.911714 236 818" id="Fill-17" fill="#F8F8F8"/></g></g></g></g></svg>
